<?xml version="1.0" standalone="no"?>
<!DOCTYPE svg PUBLIC "-//W3C//DTD SVG 20010904//EN"
 "http://www.w3.org/TR/2001/REC-SVG-20010904/DTD/svg10.dtd">
<svg version="1.0" xmlns="http://www.w3.org/2000/svg"
 width="577.000000pt" height="433.000000pt" viewBox="0 0 577.000000 433.000000"
 preserveAspectRatio="xMidYMid meet">

<g transform="translate(0.000000,433.000000) scale(0.100000,-0.100000)"
fill="#000000" stroke="none">
<path d="M2080 3290 l0 -220 70 0 70 0 0 150 0 150 1205 0 1205 0 0 -1205 0
-1205 -1202 2 -1203 3 -3 148 -3 147 -69 0 -70 0 0 -220 0 -220 1345 0 1345 0
0 1345 0 1345 -1345 0 -1345 0 0 -220z"/>
<path d="M1710 2165 l0 -835 130 0 130 0 0 365 0 365 380 0 380 0 2 -362 3
-363 130 0 130 0 3 833 2 832 -135 0 -135 0 0 -355 0 -355 -377 2 -378 3 -3
353 -2 352 -130 0 -130 0 0 -835z"/>
<path d="M3340 2890 l0 -110 115 0 115 0 0 -615 0 -615 -115 0 -115 0 0 -110
0 -110 360 0 360 0 0 110 0 110 -115 0 -115 0 0 615 0 615 115 0 115 0 0 110
0 110 -360 0 -360 0 0 -110z"/>
</g>
</svg>
